<svg xmlns="http://www.w3.org/2000/svg" viewBox="0 0 512 512"><!--!Font Awesome Free 6.5.2 by @fontawesome - https://fontawesome.com License - https://fontawesome.com/license/free Copyright 2024 Fonticons, Inc.--><path d="M256 8C119 8 8 119.1 8 256c0 137 111 248 248 248s248-111 248-248C504 119.1 393 8 256 8zm0 448c-110.5 0-200-89.4-200-200 0-110.5 89.5-200 200-200 110.5 0 200 89.5 200 200 0 110.5-89.4 200-200 200zm107.2-255.2c0 67.1-72.4 68.1-72.4 92.9V300c0 6.6-5.4 12-12 12h-45.6c-6.6 0-12-5.4-12-12v-8.7c0-35.7 27.1-50 47.6-61.5 17.6-9.8 28.3-16.5 28.3-29.6 0-17.2-22-28.7-39.8-28.7-23.2 0-33.9 11-48.9 30-4.1 5.1-11.5 6.1-16.7 2.1l-27.8-21.1c-5.1-3.9-6.3-11.1-2.6-16.4C184.8 131.5 214.9 112 261.8 112c49.1 0 101.5 38.3 101.5 88.8zM298 368c0 23.2-18.8 42-42 42s-42-18.8-42-42 18.8-42 42-42 42 18.8 42 42z"/></svg>